<?xml version="1.0" encoding="UTF-8"?>
<svg id="_レイヤー_2" data-name="レイヤー 2" xmlns="http://www.w3.org/2000/svg" viewBox="0 0 233.6023 133.2905">
  <defs>
    <style>
      .cls-1 {
        stroke: #653d3d;
        stroke-width: .75px;
      }

      .cls-1, .cls-2 {
        fill: #653d3d;
      }

      .cls-1, .cls-3 {
        stroke-miterlimit: 10;
      }

      .cls-4 {
        fill: #de8985;
      }

      .cls-4, .cls-2 {
        stroke-width: 0px;
      }

      .cls-3 {
        fill: #de8585;
        stroke: #de8585;
      }
    </style>
  </defs>
  <g id="_レイヤー_1-2" data-name="レイヤー 1">
    <g>
      <path class="cls-4" d="M0,8.0732v-2.6909h9.4189v3.7002h-.6729L0,8.0732ZM9.4189,46.7568v3.7002H0v-2.6909l8.7461-1.0093h.6729ZM6.3911,26.2378c0-6.9297,0-13.9263-.2017-20.8555h6.4585c-.2017,6.7944-.2017,13.7915-.2017,20.8555v2.3545c0,7.9385,0,14.9355.2017,21.8647h-6.4585c.2017-6.7949.2017-13.7915.2017-20.8555v-3.3638ZM9.4189,25.6323h6.6602c8.2749,0,11.8403-2.624,11.8403-8.8135s-3.5654-8.3418-10.4946-8.3418h-8.0059v-3.0947h9.9565c9.2168,0,14.5991,4.5747,14.5991,11.0332,0,5.2476-3.6328,9.8896-12.5806,10.9658v-.6055c10.4946.8745,14.8003,5.584,14.8003,11.3696,0,6.1221-5.0454,12.3115-17.7607,12.3115h-9.0146v-3.0947h7.3999c8.7461,0,12.9844-3.2964,12.9844-9.2168,0-6.2568-4.1035-9.4185-13.5225-9.4185h-6.8618v-3.0947Z"/>
      <path class="cls-4" d="M70.1016,30.5435c0,1.5474-.2021,2.8926-.4712,3.7676h-24.8247v-2.8257h16.0117c3.229,0,3.9692-1.5474,3.9692-3.4312,0-3.835-3.2295-7.333-7.4678-7.333-4.3057,0-9.2842,3.6328-9.2842,13.2534,0,8.5439,4.3057,13.1187,11.0332,13.1187,4.3057,0,6.9971-1.9512,9.4189-4.7769l1.5474,1.2114c-2.4219,4.7764-6.7275,7.8037-12.8496,7.8037-9.0151,0-14.8682-6.2568-14.8682-16.4824,0-10.2935,6.9966-17.1553,15.3389-17.1553,6.9297,0,12.4463,4.709,12.4463,12.8496Z"/>
      <path class="cls-4" d="M81.2017,50.457c.1343-3.0273.2017-9.957.2017-14.1279v-3.1621c0-3.7002-.0674-5.7856-.2017-8.4766l-5.3823-.6055v-2.355l9.1499-4.0361,1.0088.6724.8076,7.8042v10.1587c0,4.1709.0669,11.1006.2017,14.1279h-5.7856ZM91.6968,48.1025v2.3545h-15.4736v-2.3545l7.4004-1.3457h1.3457l6.7275,1.3457ZM107.2373,30.1396v6.1895c0,4.3057.0674,11.1006.2021,14.1279h-5.7861c.1348-3.0273.2021-9.8223.2021-14.1279v-5.6514c0-6.2563-1.6147-8.2749-5.6514-8.2749-3.3638,0-6.1221,1.3457-9.957,4.6421h-1.4126v-3.0273h3.4312l-2.8931,1.2109c3.1621-4.2383,8.5444-7.5347,13.3208-7.5347,5.7856,0,8.5439,3.5654,8.5439,12.4458ZM105.4209,46.7568l6.7275,1.3457v2.3545h-15.4731v-2.3545l7.3999-1.3457h1.3457Z"/>
      <path class="cls-4" d="M145.0469,30.5435c0,1.5474-.2021,2.8926-.4707,3.7676h-24.8252v-2.8257h16.0117c3.2295,0,3.9688-1.5474,3.9688-3.4312,0-3.835-3.2285-7.333-7.4668-7.333-4.3057,0-9.2842,3.6328-9.2842,13.2534,0,8.5439,4.3057,13.1187,11.0332,13.1187,4.3057,0,6.9961-1.9512,9.418-4.7769l1.5479,1.2114c-2.4219,4.7764-6.7275,7.8037-12.8496,7.8037-9.0156,0-14.8682-6.2568-14.8682-16.4824,0-10.2935,6.9971-17.1553,15.3389-17.1553,6.9297,0,12.4463,4.709,12.4463,12.8496Z"/>
      <path class="cls-4" d="M156.416,22.0664h-5.6514v-2.8926l7.6025-1.0093-1.9512,1.0093c.6729-7.7368,1.749-11.8408,4.7764-15.0698,2.8936-3.1621,6.3242-4.104,9.3516-4.104,3.1621,0,5.7188,1.0093,6.3916,3.5654-.1348,1.6821-1.6152,2.9604-4.0371,2.9604-1.6816,0-3.1621-.6729-4.7764-1.8838l-3.2969-2.4893,5.6514-1.3457,1.5479,2.0186c-.7402-.4038-1.8164-.8076-2.624-.8076-2.0186,0-4.3057,1.4805-5.584,3.7676-1.5479,2.6914-2.5566,7.1987-2.0186,15.4062v15.1372c0,4.7095.0674,9.4185.2021,14.1279h-5.7861c.1348-4.7095.2021-9.4185.2021-14.1279v-14.2627ZM168.0547,48.1025v2.3545h-17.2227v-2.3545l7.6025-1.3457h1.3457l8.2744,1.3457ZM171.082,18.5684v3.498h-11.9746v-3.498h11.9746Z"/>
      <path class="cls-4" d="M172.2256,62.8359c.4707-1.8838,2.4219-2.8257,4.4404-2.8257,1.749,0,3.0947.6729,4.9111,2.4893l2.085,2.085-2.623,1.4805-1.8164-1.4805c4.5068-2.2197,7.1982-6.8618,8.8799-11.5708l2.0859-5.853,10.3604-28.5923h3.6328l-11.9746,31.4849c-4.5752,12.1099-8.3428,17.2227-13.8594,17.2227-3.2969,0-6.1221-1.8164-6.1221-4.4399ZM179.0879,21.9321l-6.5928-1.0093v-2.3545h16.0117v2.4219l-8.0732.9419h-1.3457ZM189.1123,53.9556l-14.0615-35.3872h6.2568l10.5625,28.6597-2.7578,6.7275ZM200.5488,21.9321l-7.1309-1.0093v-2.3545h13.1855v2.3545l-4.709,1.0093h-1.3457Z"/>
    </g>
    <g>
      <path class="cls-3" d="M66.2373,97.3022c4.8882-2.8086,8.1465-5.3369,11.3491-9.1016h-4.9438c0,.8994-.6182,1.3486-1.9106,1.3486-1.1235,0-1.1797-.6182-1.1797-1.0674,0-.5059.1685-2.8096.1685-3.3145,0-3.708,0-5.5625-.2246-7.6416l3.3711,2.0225h5.8428v-3.2578h-6.2925c-.6738,0-2.5278,0-4.2134.2246l-1.0117-2.6973c2.2476.1689,3.3149.2246,5.6748.2246h5.7866c0-.7861,0-3.3145-.2246-4.7754l3.8203.6182c.7305.1123,1.4048.2246,1.4048.7871,0,.6738-.6182.9551-2.1353,1.5723v1.7979h4.6074l1.4043-1.9658c.1685-.2812.3936-.4492.6743-.4492s.5615.2246.7305.3369l2.9775,2.6963c.3369.2812.5059.5059.5059.8428,0,.6748-.8428.7871-1.3486.7871h-9.5513v3.2578h5.4497l1.0679-1.5723c.1123-.1689.2246-.3936.5615-.3936.2251,0,.3374.1123.6182.3369l2.4722,2.1348c.2808.2812.5054.4492.5054.8428,0,.5625-.6177.8994-1.7979,1.5732,0,.8428.1123,4.3262.1123,5.0566,0,.5059,0,1.6289-2.0225,1.6289-1.0112,0-1.0112-.5049-1.0112-.9551h-5.9556v.5625c2.1914.5615,9.1021,2.3027,9.1021,5.5615,0,.6748-.3936,1.5732-1.1802,1.5732-.4492,0-.7866-.2246-1.5728-1.0117-.7305-.7295-3.0342-3.0332-6.3491-4.8311v1.6289c0,1.0674.1689,5.7305.1689,6.6299.0562,1.3486-1.4609,1.4609-2.0791,1.4609-.9551,0-1.0674-.5059-1.0674-1.0674,0-1.124.1685-6.0117.1685-7.0234v-1.1797c-3.0337,3.2021-7.5845,5.8428-12.0229,7.5283l-.4497-.7305ZM110.5098,115.731l1.7979-2.585c.1685-.2812.3369-.4492.6738-.4492.2246,0,.4492.1123.6748.3369l3.7637,3.2588c.3936.3369.5059.6182.5059.8428,0,.8428-.9551.8428-1.3486.8428h-45.1147c-.8428,0-2.1909,0-4.2134.2246l-1.0117-2.6973c1.6294.1123,3.3711.2256,5.6748.2256h4.9438v-2.3037c0-1.4609,0-4.6631-.2808-6.4053l4.2139.6182c.5615.0566,1.4043.1689,1.4043.8428,0,.5615-.5054.8994-2.1348,1.5166v5.7314h10.7871v-12.0234h-16.2368c-.8428,0-2.1914,0-4.2139.2246l-1.0112-2.6973c1.6294.1133,3.3711.2256,5.6743.2256h32.3052l1.7979-2.585c.1685-.2803.3374-.4492.6743-.4492.2246,0,.4492.1123.6743.2812l3.7637,3.3145c.2256.1689.5059.4492.5059.8428,0,.8428-.9551.8428-1.3486.8428h-19.3828v4.6064h11.1245l1.854-2.6406c.1685-.2803.3369-.4492.6743-.4492.2808,0,.4492.1123.6738.2812l3.9331,3.4268c.1685.1689.4492.4502.4492.8428,0,.7871-.9551.7871-1.292.7871h-17.417v5.1689h16.4619ZM78.71,81.6841h-6.0674v4.3818h6.0674v-4.3818ZM81.519,86.0659h5.9556v-4.3818h-5.9556v4.3818ZM90.8457,84.9985c4.1011-4.4385,7.3599-9.6074,8.9331-15.4502l3.3706,1.0674c1.3486.4492,1.4609.8428,1.4609,1.1797,0,.8428-.7305.8994-2.3032,1.0674-.6182,1.124-1.0679,1.9668-2.1914,3.6523h10.731l1.7417-2.4727c.2251-.2803.3931-.4492.6743-.4492s.5059.1689.7305.3936l3.5957,3.1465c.2246.168.5059.4492.5059.8428,0,.7295-.8994.7861-1.293.7861h-5.7305l1.6855.6182c.7305.2803,1.124.5615,1.124,1.0107,0,.6748-.5625.8994-1.9668,1.124-.4492,1.1797-2.0786,5.6182-4.9438,9.0459,2.1348,1.5723,6.0112,3.6514,11.5171,5.5059l-.1123.8984c-2.2471.1123-3.2021.1689-4.5508,1.8545-2.5278-1.4053-6.0112-3.4277-9.1016-6.0684-1.0112.7871-5.4497,4.3262-15.5625,6.2363l-.2246-.8984c5.1123-1.6855,10.1689-3.9893,13.9331-7.0791-3.4272-3.54-5.0562-8.0908-5.562-10.7871-1.3486,1.5732-3.3149,3.7637-5.7866,5.3369l-.6743-.5615ZM98.5425,78.7622c.9551,2.6406,2.5283,6.6299,6.3486,10.1689,2.5845-3.0342,3.877-7.7529,4.2139-10.1689h-10.5625Z"/>
      <path class="cls-3" d="M139.165,70.8403c1.292.5059,1.4043.7305,1.4043,1.1797,0,.8428-.6738.8994-2.2471,1.0674-2.2471,5.4502-3.3711,7.8662-4.9443,11.0117,1.124.1133,1.5732.1689,1.5732.7871,0,.2812-.0557.6738-1.6289,1.4609v25.6191c0,1.0674.1123,6.3486.1123,7.5283,0,1.3486-1.5166,1.4609-2.416,1.4609-1.0117,0-1.0674-.6182-1.0674-1.0674,0-1.292.168-7.3037.168-7.9219v-21.6865c-1.5166,2.5283-3.9326,6.5732-7.5283,9.9443l-.6738-.5615c7.9219-12.4727,12.4727-25.2266,13.2588-30.3389l3.9893,1.5166ZM175.0664,106.9663c-.6748.0557-2.6973.168-3.8213,1.7412-4.3818-3.9326-10.4492-12.7529-14.1016-24.1582v22.6973h4.6631l1.5732-2.1904c.1689-.2812.3936-.4502.6182-.4502.3369,0,.5615.1689.7861.3936l3.2588,2.8652c.1689.1689.5059.3936.5059.8428,0,.6748-.9551.7305-1.3486.7305h-10.0566v2.3594c0,1.2363.1123,6.4609.1123,7.5293,0,1.292-1.3486,1.46-2.0791,1.46-.8428,0-1.123-.3369-1.123-1.0674,0-1.292.168-6.7979.168-7.9219v-2.3594h-5.1123c-2.0225,0-3.5391.1689-4.2139.2246l-.9551-2.6406c1.7422.1123,3.4277.2246,5.6182.2246h4.6631v-20.3379c-4.6064,10.3379-10.9551,18.4277-16.5732,22.9229l-.6182-.6182c9.8877-12.1357,13.9336-21.7432,15.6748-25.8438h-8.7646c-2.0225,0-3.5391.1123-4.2139.2246l-1.0107-2.6973c1.7412.1123,3.4268.2246,5.6738.2246h9.832v-5.1689c0-2.0225,0-4.7188-.2803-6.4609l3.876.5625c.7305.1123,1.4609.168,1.4609.7861,0,.6738-.5059.8994-2.1348,1.5732v8.708h9.7197l1.6855-2.416c.2246-.2803.3936-.4492.6738-.4492.2812,0,.5059.1689.7305.3936l3.4834,3.0342c.2246.168.5059.4492.5059.8984,0,.2246-.1123.7871-1.3486.7871h-14.6641c5.9561,15.0566,14.6084,21.2363,17.1924,22.6973l-.0557.8994Z"/>
      <path class="cls-3" d="M193.1582,71.0093c.1689-.2246.3379-.3369.5625-.3369.3369,0,.5049.1123.6738.3369l2.1914,2.7529c.3369.3926.5059.6182.5059.9551,0,.5615-.3936.8428-1.9668,1.0674-1.0674,2.6406-2.8096,6.9668-6.2363,12.6406,4.2139,3.3154,6.5176,7.8662,6.5176,13.2031,0,3.0342-.7871,7.3037-6.1807,7.5283,0-.6738-.0557-1.8535-3.8203-2.6406l.1689-.9551c4.7188.2256,6.7412.2812,6.7412-4.8311,0-7.0791-3.5391-10.5625-5.0557-12.0791,2.4717-6.3496,3.1455-8.3721,4.6631-13.9336h-6.9111v37.0801c0,1.0674.1689,6.8545.1689,7.3037,0,.9551,0,1.6855-2.2471,1.6855-.9551,0-1.0674-.3926-1.0674-1.0674,0-1.2354.168-6.7979.168-7.9219v-35.1699c0-.7871-.0557-3.7646-.2812-6.293l4.1016,2.1348h5.8994l1.4043-1.46ZM216.418,114.0454c0,1.2354,0,2.0781,2.248,2.0781h3.708c1.0674,0,2.3027,0,2.8652-1.3477.2803-.6182,1.46-6.1807,1.6289-6.9668l.8994.0557c.3369,5.8428.3369,6.5176.6172,7.0791.1123.2812,1.0117,1.4609,1.0117,1.7422,0,2.4717-5.4502,2.4717-7.4727,2.4717h-3.0898c-5.3936,0-5.3936-.9551-5.3936-5.1123v-15.3945h-7.585l1.5176.3936c.9551.2246,1.4043.4492,1.4043.9551,0,.6738-.5059.7861-1.5732,1.0674-.8428,7.1914-4.0449,16.5742-15.4502,20.001l-.2812-.8428c8.2031-4.3818,12.9229-12.416,12.6973-21.5742h-3.0898c-1.123,0-2.1348,0-4.3818.2246l-.8994-2.6963c1.6299.1123,3.4277.2246,5.6748.2246h20.5068l1.7979-2.5283c.168-.2246.3936-.4492.6738-.4492.2246,0,.5059.2246.6748.3369l3.3701,3.0898c.1689.1689.4502.5615.4502,1.0117,0,.7861-.7871.7861-1.124.7861h-11.4053v15.3945ZM223.4414,76.8521l1.3477-1.6855c.1689-.2246.3379-.3936.6182-.3936.2812,0,.5625.1123.7871.3936l2.9209,3.0342c.1689.168.3379.3926.3379.7861,0,.7871-.2256.7871-2.585,1.0674-1.9102,2.1348-2.8096,3.1465-4.5508,4.7754l-.7305-.5049c1.4043-3.2031,1.5166-3.54,2.0791-5.2256h-23.4287c0,5-1.8535,6.5732-3.4834,6.5732-.8428,0-1.4043-.5615-1.4043-1.123,0-.8994,2.0225-4.4385,2.3594-5.2256.7871-1.9658,1.0117-3.3711,1.124-4.2695l.8984-.0566c.2256,1.0117.2812,1.293.3379,1.8545h9.6631v-1.1797c0-.8428-.0566-3.8203-.2812-6.293l3.9893.5059c.6182.0566,1.4043.2246,1.4043.8428s-.2246.7305-2.1348,1.5732v4.5508h10.7314ZM217.3174,87.0776l1.7979-2.5283c.168-.2246.3369-.4502.6738-.4502.2246,0,.4492.1689.6738.3379l3.4277,3.0898c.168.168.4492.5615.4492.9551,0,.8428-.7861.8428-1.123.8428h-19.6641c-1.0684,0-2.1357,0-4.3828.2246l-.8428-2.6973c1.6299.1133,3.3711.2256,5.6182.2256h13.3721Z"/>
    </g>
    <g>
      <path class="cls-2" d="M79.8018,129.9575v-9.8896c0-.3643-.0146-.7568-.4902-.7568-.168,0-.3223.0283-.4766.0566l-.0557-.4766,1.8623-.3359v4.5938c.6865-.7695,1.541-1.1621,2.5635-1.1621,1.5693,0,3.2217,1.0361,3.2217,3.9502,0,2.8018-1.583,4.0205-3.4033,4.0205-1.2188,0-1.9893-.5332-2.3115-.7705l-.9102.7705ZM80.6416,128.1362c.6445,1.0225,1.709,1.2607,2.3252,1.2607,2.2559,0,2.5635-2.3115,2.5635-3.4043,0-1.751-.8125-3.3477-2.5352-3.3477-.8682,0-2.0732.5322-2.3535,1.6953v3.7959Z"/>
      <path class="cls-2" d="M98.8447,128.3599c-.252.3926-1.0371,1.5977-2.9697,1.5977-2.1436,0-3.4463-1.6113-3.4463-3.8525,0-2.4092,1.5137-4.1045,3.4883-4.1045,1.9473,0,2.9834,1.541,3.0117,3.6279h-5.5889c-.0566,2.9414,1.7227,3.6982,2.8018,3.6982.252,0,1.4424,0,2.2412-1.2744l.4619.3076ZM97.9482,125.0688c-.0137-.4209-.0986-2.5078-2.0596-2.5078-1.1768,0-2.2832.8682-2.5068,2.5078h4.5664Z"/>
      <path class="cls-2" d="M109.96,124.0317c0-.5459-.042-1.4844-1.625-1.4844-.6162,0-1.415.1533-1.6807.7705-.2246.5176-.2949.6719-.6309.6719-.3506,0-.4902-.2656-.4902-.4902,0-.6299,1.0791-1.499,2.8018-1.499,2.3252,0,2.4648,1.3174,2.4648,2.0176v4.4678c0,.5049.0703.8125.3926.8125.3779,0,.6299-.4756.7842-.7979l.4346.2656c-.3359.6729-.7568,1.1914-1.4707,1.1914-.8545,0-.9531-.7568-.9805-1.1494-.3506.3223-1.3174,1.1494-2.8301,1.1494-1.8623,0-2.2129-1.3027-2.2129-1.8916,0-1.4424,1.415-1.9189,2.4648-2.1992.4062-.0977,2.2139-.4902,2.5781-.5742v-1.2607ZM109.96,125.8804c-3.2363.6729-4.1465.8828-4.1465,2.0596,0,.7422.5742,1.4004,1.499,1.4004.9658,0,2.0029-.5596,2.6475-1.2744v-2.1855Z"/>
      <path class="cls-2" d="M119.5752,122.0005v5.3789c0,1.0225.2939,1.9473,1.5127,1.9473,1.3867,0,2.5918-1.1768,2.5918-2.1855v-3.6279c0-.3779-.0137-.7559-.4766-.7559-.168,0-.3359.0283-.4902.0557l-.0557-.4766,1.8623-.3359v6.6816c0,.4209,0,.7285.7012.6582v.4766l-1.541.1406v-1.541c-.4766.7422-1.4014,1.541-2.7461,1.541-1.7227,0-2.1982-1.0928-2.1982-2.2559v-4.1885c0-.3916-.0146-.7559-.4766-.7559-.168,0-.3359.0283-.4902.0557l-.0566-.4766,1.8633-.3359Z"/>
      <path class="cls-2" d="M133.043,119.9976v2.2129h1.9756v.5605h-1.9756v5.5332c0,.3076,0,1.0225.7148,1.0225.0693,0,.6162,0,1.0508-.4902l.3496.4482c-.4062.4346-.9668.6729-1.5684.6729-1.2607,0-1.4014-.7852-1.4014-1.6816v-5.5049h-1.1064v-.4766c.9951-.0557,1.373-.9805,1.457-2.2969h.5039Z"/>
      <path class="cls-2" d="M146.2334,123.4995c.1123-.252.1123-.4199.1123-.4766,0-.3223-.3506-.3223-.8965-.3223v-.4756h2.5205v.4756c-.4619,0-.7979.0566-1.1201.8125l-3.1377,7.4102c-.4482,1.0645-1.0088,2.3672-2.1572,2.3672-.4619,0-.6729-.2236-.6729-.4902,0-.4619.4766-.4756.7988-.4902.6729-.0273.9102-.1963,1.5127-1.6387l.6729-1.5967-2.2559-5.5469c-.3076-.7422-.5596-.8271-1.1904-.8271v-.4756h2.8994v.4756c-.6025,0-.9658,0-.9658.3223,0,.126.1113.4209.126.4482l1.835,4.5391,1.9189-4.5107Z"/>
      <path class="cls-2" d="M162.876,127.8423h.5879c.0703.3223.1406.6299.3926.8965.4619.5176,1.1484.6582,1.6533.6582.7275,0,1.624-.3359,1.624-1.3447,0-.8828-.6162-1.1631-1.8623-1.7373-1.1631-.5322-2.1855-.9941-2.1855-2.3252,0-1.0361.7422-1.9893,2.3955-1.9893.3223,0,.7139.0283,1.2607.252.0703.0283.7422.2949.7842.2949l.1123,1.3164-.5889.0283c-.252-1.3311-1.498-1.3311-1.6807-1.3311-.7979,0-1.5547.4346-1.5547,1.2471,0,.7705.5879,1.0498,1.8633,1.6387,1.4561.6865,2.2549,1.0645,2.2549,2.4229,0,2.0879-2.1152,2.0879-2.5771,2.0879-.3223,0-.7988-.0146-1.4434-.2246-.1533-.042-.7842-.2803-.9238-.3086l-.1123-1.582Z"/>
      <path class="cls-2" d="M178.8672,124.0317c0-.5459-.042-1.4844-1.625-1.4844-.6162,0-1.415.1533-1.6807.7705-.2246.5176-.2939.6719-.6309.6719-.3496,0-.4902-.2656-.4902-.4902,0-.6299,1.0791-1.499,2.8018-1.499,2.3252,0,2.4658,1.3174,2.4658,2.0176v4.4678c0,.5049.0693.8125.3916.8125.3779,0,.6309-.4756.7842-.7979l.4346.2656c-.3359.6729-.7559,1.1914-1.4707,1.1914-.8545,0-.9521-.7568-.9805-1.1494-.3506.3223-1.3164,1.1494-2.8301,1.1494-1.8623,0-2.2129-1.3027-2.2129-1.8916,0-1.4424,1.415-1.9189,2.4658-2.1992.4062-.0977,2.2129-.4902,2.5771-.5742v-1.2607ZM178.8672,125.8804c-3.2363.6729-4.1465.8828-4.1465,2.0596,0,.7422.5742,1.4004,1.499,1.4004.9668,0,2.0029-.5596,2.6475-1.2744v-2.1855Z"/>
      <path class="cls-2" d="M188.6084,128.3179c0,.8125.2109.9385.9951.9385v.4766h-2.8438v-.4766c.8125,0,.9941-.1533.9941-.9385v-8.2363c0-.3643,0-.7559-.4756-.7559-.168,0-.3223.0273-.4766.0557l-.0557-.4766,1.8623-.3359v9.749Z"/>
      <path class="cls-2" d="M199.1943,122.0005c2.4512,0,3.6836,1.8633,3.6836,3.9785s-1.2324,3.9785-3.6836,3.9785c-2.4238,0-3.6846-1.8076-3.6846-3.9785,0-2.1572,1.2607-3.9785,3.6846-3.9785ZM199.25,129.397c1.3027,0,2.7031-1.0225,2.7031-3.2783,0-2.2969-1.3447-3.5576-2.8154-3.5576-.7285,0-1.5547.2939-2.1426,1.1768-.4482.6865-.5469,1.3447-.5469,2.3672,0,1.415.9385,3.292,2.8018,3.292Z"/>
      <path class="cls-2" d="M210.5049,123.5415c.4062-.6582,1.3164-1.541,2.7314-1.541,2.2129,0,2.2129,1.751,2.2129,2.5781v3.7393c0,.8125.21.9385.9941.9385v.4766h-2.8428v-.4766c.7979,0,.9941-.1396.9941-.9385v-3.7393c0-.6729-.126-1.9473-1.499-1.9473-1.3721,0-2.5908,1.1621-2.5908,2.1846v3.502c0,.8125.2236.9385.9941.9385v.4766h-2.8438v-.4766c.8125,0,.9951-.1533.9951-.9385v-4.8047c0-.3779,0-.7559-.4766-.7559-.168,0-.3359.0283-.4766.0557l-.0557-.4766,1.8633-.3359v1.541Z"/>
    </g>
    <g>
      <path class="cls-2" d="M15.7148,60.9995c-1.1621,0-1.8623-.7852-2.2129-1.1631l-.5889,1.1631h-.2236v-9.1895c0-.4199-.126-.7422-.6299-.7422-.1123,0-.2246.0283-.4766.084l-.0703-.3086,1.9893-.5742v4.7627c.252-.3223.9385-1.1904,2.2412-1.1904.6719,0,1.3027.2656,1.7646.7285.8545.8398.9531,2.1992.9531,2.8994,0,2.4932-1.4854,3.5303-2.7461,3.5303ZM15.4766,54.4438c-1.1201,0-1.667.7979-1.9746,1.2324v3.502c.3223.4062,1.0088,1.2461,1.9473,1.2461.8682,0,2.0449-.8965,2.0449-2.9834,0-1.1768-.3779-2.9971-2.0176-2.9971Z"/>
      <path class="cls-2" d="M27.6289,60.9995c-2.6191,0-3.124-2.3535-3.124-3.5723,0-1.793.9531-3.5859,2.9834-3.5859,1.2334,0,1.8916.6719,2.2559,1.2324.5176.7988.5742,1.5127.6162,1.9893h-4.8467c-.0977,3.3477,2.1436,3.4033,2.4092,3.4033,1.2188,0,1.8633-.8545,2.1855-1.3018l.3223.2656c-.5186.6729-1.2051,1.5693-2.8018,1.5693ZM27.4609,54.2612c-1.583,0-1.8213,1.6953-1.9189,2.3398h3.7393c-.0977-1.8076-.9658-2.3398-1.8203-2.3398Z"/>
      <path class="cls-2" d="M40.3135,60.7329v-.4482h.3496c.6309,0,.7988-.4199.7988-1.0225v-3.1797c0-.6582-.1963-1.5967-1.2891-1.5967-.9805,0-1.793.8682-2.1846,1.3027v3.4736c0,.5605.168,1.0225.8262,1.0225h.3643v.4482h-3.0684v-.4482h.2666c.6162,0,.7842-.4199.7842-1.0225v-4.0625c0-.2803-.1816-.6299-.5176-.6299-.0283,0-.1963,0-.4062.0557l-.0703-.2939,1.8213-.5459v1.4141c.7002-.7002,1.3867-1.3584,2.4229-1.3584,1.1768,0,1.8633.7979,1.8633,2.0449v3.376c0,.6299.1396,1.0225.7422,1.0225h.3643v.4482h-3.0674Z"/>
      <path class="cls-2" d="M52.2129,60.9995c-2.6191,0-3.123-2.3535-3.123-3.5723,0-1.793.9521-3.5859,2.9834-3.5859,1.2324,0,1.8906.6719,2.2549,1.2324.5186.7988.5742,1.5127.6162,1.9893h-4.8467c-.0977,3.3477,2.1436,3.4033,2.4102,3.4033,1.2178,0,1.8623-.8545,2.1846-1.3018l.3223.2656c-.5186.6729-1.2041,1.5693-2.8018,1.5693ZM52.0449,54.2612c-1.583,0-1.8203,1.6953-1.9189,2.3398h3.7402c-.0986-1.8076-.9668-2.3398-1.8213-2.3398Z"/>
      <path class="cls-2" d="M64.7852,51.5581c-.3359,0-.4756-.1543-.5879-.2666-.126-.1396-.2383-.2656-.4482-.2656-.3926,0-.7842.4482-.7842,1.7646v1.3164h1.6387v.4482h-1.6387v4.707c0,.6299.2236,1.0225.9805,1.0225h.6445v.4482h-3.8809v-.4482h.4209c.5322,0,.9805-.3086.9805-1.0225v-4.707h-1.4287v-.4482h1.4287v-.7422c0-1.9473,1.3164-3.1094,2.4795-3.1094.6162,0,.8115.3916.8115.6719,0,.2246-.1396.6309-.6162.6309Z"/>
      <path class="cls-2" d="M75.916,55.438l-2.2412,5.6875c-.4766,1.2188-1.0361,1.8906-2.2832,1.8906-.2383,0-.9521-.0137-.9521-.6299,0-.3086.2373-.5752.5596-.5752.2383,0,.4209.1406.6309.3223.084.0703.1963.168.4619.168.2666,0,.6865.0146,1.2051-1.4287l.0693-.1953-2.1846-5.2256c-.3643-.8818-.7988-.8965-1.1348-.8965v-.4482h2.9697v.4482h-.3779c-.3223,0-.6729.0986-.6729.4766,0,.21.0977.4482.1406.5469l1.6943,3.9912,1.541-3.9912c.084-.2246.1396-.3926.1396-.5469,0-.2383-.126-.4766-.7979-.4766h-.2666v-.4482h2.8154v.4482c-.3643,0-.9658.0146-1.3164.8828Z"/>
    </g>
    <line class="cls-1" x1="8.1016" y1="53.3817" x2="221.1023" y2="53.3817"/>
    <line class="cls-1" x1="64.1016" y1="121.3813" x2="233.6023" y2="121.3813"/>
  </g>
</svg>